<?xml version="1.0" standalone="no"?>
<!DOCTYPE svg PUBLIC "-//W3C//DTD SVG 20010904//EN"
 "http://www.w3.org/TR/2001/REC-SVG-20010904/DTD/svg10.dtd">
<svg version="1.0" xmlns="http://www.w3.org/2000/svg"
 width="512.000000pt" height="512.000000pt" viewBox="0 0 512.000000 512.000000"
 preserveAspectRatio="xMidYMid meet">
<metadata>
Created by potrace 1.14, written by Peter Selinger 2001-2017
</metadata>
<g transform="translate(0.000000,512.000000) scale(0.100000,-0.100000)"
fill="#000000" stroke="none">
<path d="M792 5109 c-165 -28 -349 -118 -483 -238 -141 -126 -245 -309 -289
-509 -19 -84 -20 -143 -17 -1832 l2 -1745 27 -86 c36 -114 65 -177 127 -271
141 -216 360 -362 621 -413 64 -12 321 -14 1805 -12 952 2 1744 6 1760 10 137
29 300 103 410 187 133 101 264 288 319 455 47 144 46 90 43 1930 -1 952 -6
1744 -10 1760 -54 217 -134 364 -271 500 -117 116 -262 199 -432 247 l-79 23
-1740 1 c-975 1 -1763 -2 -1793 -7z"/>
</g>
</svg>
